<?xml version="1.0" encoding="utf-8"?>
<!-- Generator: Adobe Illustrator 17.0.0, SVG Export Plug-In . SVG Version: 6.00 Build 0)  -->
<!DOCTYPE svg PUBLIC "-//W3C//DTD SVG 1.1//EN" "http://www.w3.org/Graphics/SVG/1.1/DTD/svg11.dtd">
<svg version="1.1" id="Layer_1" xmlns="http://www.w3.org/2000/svg" xmlns:xlink="http://www.w3.org/1999/xlink" x="0px" y="0px"
	 width="24px" height="24px" viewBox="0 0 24 24" enable-background="new 0 0 24 24" xml:space="preserve">
<g id="Icons" style="opacity:0.75">
<g id="Book">
<path d="M18,4H6C4,3.993,3,4.993,3,6.993L3.014,16C3,18,4,18.988,6,19h12c2-0.012,2.994-1,3-3.006V6.993C20.994,4.993,20,3.993,18,4
	z"/>
<path fill="#FFFFFF" d="M5.055,17.1c-0.348,0.019-0.348-0.247-0.348-0.452V8.741c0-0.213,0.169-0.387,0.376-0.387h0.031
	c0.208,0,0.376,0.174,0.376,0.387v7.51c2.219-0.287,3.879-0.372,5.938,0.232c0.322,0.19,0.176,0.661-0.166,0.615L5.055,17.1z"/>
<path fill="#FFFFFF" d="M8.218,7.102c2.106,0.124,3.324,0.917,3.324,0.917l-0.003,7.742C8.97,14.679,6.212,15.32,6.212,15.32
	l0.001-7.811C6.213,7.509,6.676,7.102,8.218,7.102z"/>
<path fill="#FFFFFF" d="M12.777,17.099c-0.342,0.045-0.487-0.425-0.166-0.615c2.059-0.605,3.72-0.52,5.938-0.232v-7.51
	c0-0.213,0.169-0.387,0.376-0.387h0.031c0.208,0,0.376,0.174,0.376,0.387v7.905c0,0.206,0,0.472-0.348,0.452L12.777,17.099z"/>
<path fill="#FFFFFF" d="M17.827,7.509l0.001,7.81c0,0-2.759-0.641-5.327,0.441l-0.003-7.741c0,0,1.219-0.793,3.324-0.917
	C17.364,7.102,17.827,7.509,17.827,7.509z"/>
</g>
</g>
</svg>
